<?xml version="1.0" encoding="utf-8"?>
<!-- Generator: Adobe Illustrator 26.4.1, SVG Export Plug-In . SVG Version: 6.00 Build 0)  -->
<svg version="1.1" id="图层_1" xmlns="http://www.w3.org/2000/svg" xmlns:xlink="http://www.w3.org/1999/xlink" x="0px" y="0px"
	 viewBox="0 0 130 130" style="enable-background:new 0 0 130 130;" xml:space="preserve">
<style type="text/css">
	.st0{fill:url(#SVGID_1_);}
</style>
<linearGradient id="SVGID_1_" gradientUnits="userSpaceOnUse" x1="117.246" y1="-830.9854" x2="12.3482" y2="-929.204" gradientTransform="matrix(1 0 0 -1 0 -814.9158)">
	<stop  offset="0" style="stop-color:#103380"/>
	<stop  offset="1" style="stop-color:#1B94D3"/>
</linearGradient>
<path class="st0" d="M11.8,51.9L4.4,82.6C-0.4,66.5,1.5,48.9,10.3,34l0,0C21.5,14.8,42.4,3,65,3c14.1,0,27.6,4.6,38.4,12.8
	C45.2,27.5,11.8,51.9,11.8,51.9z M119.7,96c-5.1,8.7-12.2,15.8-20.5,21.1c-0.8-1.7-1.5-3.5-2.1-5.5c-5.4-18.9-4.6-39.6,3.3-57.7
	c3.4-7.8,7.5-14.7,12.2-22.1l-18.7,7.1c-6.4,10.4-13.6,25.8-15.4,41c-0.1,1.2-0.2,2.3-0.3,3.5c0.3,0.1,0.6,0.2,0.8,0.2l5.1,1.3
	L79,86.1c-0.3,0.1-0.7,0.2-1,0.3c-0.4,12.3,1.9,24.8,7.1,36l1.6,0.8c-6.8,2.4-14.2,3.8-21.7,3.8c-2.5,0-4.9-0.2-7.3-0.4
	c-2.5-3.3-4.4-7.1-5.6-12.1c-2.2-9.5-2.9-19-2.1-28.3c0,0,0,0-0.1,0l-5.1-1.3l5.1-1.3c0.1,0,0.2-0.1,0.3-0.1
	c1.6-13.2,6.3-25.9,14.1-37.1c1-1.5,2.4-3.2,4.4-5.9c17.5-8.9,33.1-13.9,43.4-16.6c2.8,3.1,5.3,6.5,7.4,10.1l0,0
	C131,53.2,131,76.8,119.7,96z M77,84.9c-6.1-1.5-11-6.3-12.5-12.3c-1.6,6-6.4,10.8-12.5,12.3c6.1,1.5,11,6.3,12.5,12.3
	C66.1,91.2,70.9,86.4,77,84.9z M44.5,55c-12.8,8.9-25.8,20-37.9,33.9c1,2.5,2.2,4.9,3.6,7.2c6.6,11.2,16.4,19.8,28,25.1
	c-4.3-12.6-5.3-26.2-3.1-39.3C36.7,72.2,40.4,63.5,44.5,55z"/>
</svg>
